<?xml version="1.0" encoding="iso-8859-1"?>
<!-- Uploaded to: SVG Repo, www.svgrepo.com, Generator: SVG Repo Mixer Tools -->
<!DOCTYPE svg PUBLIC "-//W3C//DTD SVG 1.1//EN" "http://www.w3.org/Graphics/SVG/1.1/DTD/svg11.dtd">
<svg fill="#000000" version="1.1" id="Capa_1" xmlns="http://www.w3.org/2000/svg" xmlns:xlink="http://www.w3.org/1999/xlink" 
	 width="800px" height="800px" viewBox="0 0 57.482 57.481"
	 xml:space="preserve">
<g>
	<g>
		<path d="M6.48,15.501c0,4.126,3.357,7.481,7.481,7.481c4.125,0,7.481-3.355,7.481-7.481c0-4.124-3.356-7.48-7.481-7.48
			C9.838,8.021,6.48,11.378,6.48,15.501z M13.452,12.834c1.458,0,2.64,1.183,2.64,2.641c0,1.458-1.181,2.64-2.64,2.64
			s-2.641-1.182-2.641-2.64C10.812,14.017,11.994,12.834,13.452,12.834z"/>
		<path d="M34.76,15.501c0,4.126,3.357,7.481,7.481,7.481c4.123,0,7.481-3.355,7.481-7.481c0-4.124-3.358-7.48-7.481-7.48
			C38.118,8.021,34.76,11.378,34.76,15.501z M44.286,15.475c0,1.458-1.18,2.64-2.638,2.64s-2.641-1.182-2.641-2.64
			c0-1.458,1.183-2.641,2.641-2.641S44.286,14.017,44.286,15.475z"/>
		<path d="M43.44,24.658c-0.392,0.055-0.791,0.084-1.198,0.084c-4.987,0-9.044-4.057-9.044-9.044c0-1.599,0.422-3.098,1.153-4.401
			c0.283-0.501,0.3-1.264-0.023-1.738l-1.215-1.788c-3.298-4.847-8.454-4.726-11.52,0.272c0,0-0.216,0.352-0.482,0.786
			c-0.266,0.433-0.162,1.126,0.175,1.592c1.078,1.485,1.716,3.307,1.716,5.277c0,4.987-4.055,9.044-9.042,9.044
			c-0.471,0-0.933-0.04-1.384-0.111c-0.568-0.091-1.26,0.175-1.562,0.666L5.487,34.31l-4.123,6.723
			c-3.063,4.999-0.795,9.051,5.067,9.051c0,0,0.235,0,0.525,0c0.289,0,0.525,0.039,0.525,0.086c0,0.028,0,0.057,0,0.084
			c0.027,1.899,1.8,3.211,3.688,2.99c4.19-0.491,11.777-1.232,20.109-1.359c7.943-0.12,14.396,0.622,18.088,1.189
			c1.879,0.288,3.559-0.932,3.526-2.83c-0.001-0.046-0.002-0.094-0.004-0.142c-0.003-0.077,0.458-0.199,1.014-0.352
			c3.774-1.029,4.758-4.415,2.017-8.444L45.045,25.317C44.722,24.841,44.008,24.579,43.44,24.658z M43.752,49.485
			c-2.611-0.401,1.083-13.122-12.71-13.693c-17.252-0.718-11.347,13.466-14.31,13.813c-1.335,0.155-2.59-0.772-2.608-2.115
			c-0.069-4.895,0.773-15.215,16.063-15.215c11.285,0,15.973,10.31,16.061,15.208C46.27,48.826,45.082,49.689,43.752,49.485z"/>
	</g>
</g>
</svg>